{
	"asset":{
		"generator":"Khronos glTF Blender I/O v3.5.30",
		"version":"2.0"
	},
	"scene":0,
	"scenes":[
		{
			"name":"Scene",
			"nodes":[
				0
			]
		}
	],
	"nodes":[
		{
			"mesh":0,
			"name":"unity",
			"rotation":[
				0.253101110458374,
				-0.23003838956356049,
				0.04480547457933426,
				0.9386239051818848
			],
			"scale":[
				0.6000000238418579,
				0.6000000834465027,
				0.6000000238418579
			],
			"translation":[
				-3.6775429248809814,
				8.139898300170898,
				-1.4744353294372559
			]
		}
	],
	"animations":[
		{
			"channels":[
				{
					"sampler":0,
					"target":{
						"node":0,
						"path":"translation"
					}
				},
				{
					"sampler":1,
					"target":{
						"node":0,
						"path":"rotation"
					}
				},
				{
					"sampler":2,
					"target":{
						"node":0,
						"path":"scale"
					}
				}
			],
			"name":"unity",
			"samplers":[
				{
					"input":6,
					"interpolation":"LINEAR",
					"output":7
				},
				{
					"input":6,
					"interpolation":"LINEAR",
					"output":8
				},
				{
					"input":6,
					"interpolation":"LINEAR",
					"output":9
				}
			]
		},
		{
			"channels":[
				{
					"sampler":0,
					"target":{
						"node":0,
						"path":"weights"
					}
				}
			],
			"name":"KeyAction",
			"samplers":[
				{
					"input":10,
					"interpolation":"LINEAR",
					"output":11
				}
			]
		}
	],
	"materials":[
		{
			"doubleSided":true,
			"emissiveFactor":[
				1,
				1,
				1
			],
			"emissiveTexture":{
				"index":0
			},
			"name":"UnityMatter",
			"pbrMetallicRoughness":{
				"baseColorFactor":[
					0,
					0,
					0,
					1
				]
			}
		}
	],
	"meshes":[
		{
			"extras":{
				"targetNames":[
					"Key 1"
				]
			},
			"name":"Cube.001",
			"primitives":[
				{
					"attributes":{
						"POSITION":0,
						"TEXCOORD_0":1,
						"NORMAL":2
					},
					"indices":3,
					"material":0,
					"targets":[
						{
							"POSITION":4,
							"NORMAL":5
						}
					]
				}
			],
			"weights":[
				0
			]
		}
	],
	"textures":[
		{
			"sampler":0,
			"source":0
		}
	],
	"images":[
		{
			"bufferView":4,
			"mimeType":"image/jpeg",
			"name":"Unityss"
		}
	],
	"accessors":[
		{
			"bufferView":0,
			"componentType":5126,
			"count":138,
			"max":[
				1.3789877891540527,
				1.3758288621902466,
				1.4794362783432007
			],
			"min":[
				-1.8109545707702637,
				-1.8108559846878052,
				-1.373259425163269
			],
			"type":"VEC3"
		},
		{
			"bufferView":1,
			"componentType":5126,
			"count":138,
			"type":"VEC2"
		},
		{
			"bufferView":2,
			"componentType":5126,
			"count":138,
			"type":"VEC3"
		},
		{
			"bufferView":3,
			"componentType":5123,
			"count":240,
			"type":"SCALAR"
		},
		{
			"bufferView":5,
			"componentType":5126,
			"count":138,
			"max":[
				2.6464250087738037,
				2.38480281829834,
				0
			],
			"min":[
				0,
				0,
				-2.786992073059082
			],
			"type":"VEC3"
		},
		{
			"bufferView":6,
			"componentType":5126,
			"count":138,
			"type":"VEC3"
		},
		{
			"bufferView":7,
			"componentType":5126,
			"count":238,
			"max":[
				9.875
			],
			"min":[
				0
			],
			"type":"SCALAR"
		},
		{
			"bufferView":8,
			"componentType":5126,
			"count":238,
			"type":"VEC3"
		},
		{
			"bufferView":9,
			"componentType":5126,
			"count":238,
			"type":"VEC4"
		},
		{
			"bufferView":10,
			"componentType":5126,
			"count":238,
			"type":"VEC3"
		},
		{
			"bufferView":11,
			"componentType":5126,
			"count":61,
			"max":[
				2.5
			],
			"min":[
				0
			],
			"type":"SCALAR"
		},
		{
			"bufferView":12,
			"componentType":5126,
			"count":61,
			"type":"SCALAR"
		}
	],
	"bufferViews":[
		{
			"buffer":0,
			"byteLength":1656,
			"byteOffset":0,
			"target":34962
		},
		{
			"buffer":0,
			"byteLength":1104,
			"byteOffset":1656,
			"target":34962
		},
		{
			"buffer":0,
			"byteLength":1656,
			"byteOffset":2760,
			"target":34962
		},
		{
			"buffer":0,
			"byteLength":480,
			"byteOffset":4416,
			"target":34963
		},
		{
			"buffer":0,
			"byteLength":41172,
			"byteOffset":4896
		},
		{
			"buffer":0,
			"byteLength":1656,
			"byteOffset":46068,
			"target":34962
		},
		{
			"buffer":0,
			"byteLength":1656,
			"byteOffset":47724,
			"target":34962
		},
		{
			"buffer":0,
			"byteLength":952,
			"byteOffset":49380
		},
		{
			"buffer":0,
			"byteLength":2856,
			"byteOffset":50332
		},
		{
			"buffer":0,
			"byteLength":3808,
			"byteOffset":53188
		},
		{
			"buffer":0,
			"byteLength":2856,
			"byteOffset":56996
		},
		{
			"buffer":0,
			"byteLength":244,
			"byteOffset":59852
		},
		{
			"buffer":0,
			"byteLength":244,
			"byteOffset":60096
		}
	],
	"samplers":[
		{
			"magFilter":9729,
			"minFilter":9987
		}
	],
	"buffers":[
		{
			"byteLength":60340,
			"uri":"data:application/octet-stream;base64,"
		}
	]
}
